# xmcd
#
# Track frame offsets:
#	150
#	23640
#	41820
#	64362
#
# Disc length: 1195 seconds
#
# Revision: 1
# Processed by: cddbd v1.5.2PL0 Copyright (c) Steve Scherf et al.
# Submitted via: audiograbber 1.83.01
#
DISCID=3104a904
DTITLE=Wrecks-N-Effect - Juicy [CD Single)
DYEAR=1989
DGENRE=R&B
TTITLE0=Juicy (12'' Version)
TTITLE1=Juicy (Single Version)
TTITLE2=Juicy (Love Juicy)
TTITLE3=New Jack Swing (12'' Remix)
EXTD=
EXTT0=
EXTT1=
EXTT2=
EXTT3=
PLAYORDER=
